# xmcd CD database file
#
# Track frame offsets:
#	150
#	26905
#	52288
#	76378
#	105040
#	128805
#	159100
#	182453
#	212150
#	234980
#	265898
#	290955
#
# Disc length: 4242 seconds
#
# Revision: 0
# Processed by: cddbd v1.5.1PL2 Copyright (c) Steve Scherf et al.
# Submitted via: CDex 1.51
#
DISCID=a210900c
DTITLE=Various Artist - 全日本吹奏楽2002 金賞団体の競演 Disc6
DYEAR=2002
DGENRE=Classical
TTITLE0=課題曲III：ミニシンフォニー変ホ長調/原博/阪急百貨店吹奏楽団(指揮：秦和夫)
TTITLE1=悪魔の踊り/ヨーゼフ・ヘルメスベルガー(arr.亀井光太郎)/阪急百貨店吹奏楽団(指揮：秦和夫)
TTITLE2=課題曲I：吹奏楽のためのラメント/高昌帥/土気シビックウインドオーケストラ(指揮：加養浩幸)
TTITLE3=ローザのための楽章/マーク・キャンプハウス/土気シビックウインドオーケストラ(指揮：加養浩幸)
TTITLE4=課題曲I：吹奏楽のためのラメント/高昌帥/創価グロリア吹奏楽団(指揮：佐川聖二)
TTITLE5=バレエ音楽「ダフニスとクロエ」第２組曲より/モーリス・ラヴェル(arr.森田一浩)/創価グロリア吹奏楽団(指揮：佐川聖二)
TTITLE6=課題曲I：吹奏楽のためのラメント/高昌帥/大津シンフォニックバンド(指揮：森島洋一)
TTITLE7=大唐西域記より第１章「玄奘」/阿部勇一/大津シンフォニックバンド(指揮：森島洋一)
TTITLE8=課題曲IV：吹奏楽のためのラプソディア/足立正/横浜ブラスオルケスター(指揮：中村睦)
TTITLE9=管弦楽組曲「第六の幸運をもたらす宿」より/マルコム・アーノルド(arr.瀬尾宗利)I：ロンドンプレリュード、II：ロマンティック、III：ハッピーエンディング/横浜ブラスオルケスター(
TTITLE9=
TTITLE10=課題曲II：追想〜ある遠い日の〜/岡田宏/川越奏和奏友会吹奏楽団(指揮：佐藤正人)
TTITLE11=おほなゐ〜1995.1.17.阪神淡路大震災へのオマージュ〜/天野正道第１楽章：「瓦解」、第３楽章：「復興そして祈り」/川越奏和奏友会吹奏楽団(指揮：佐藤正人)
EXTD=YEAR: 2002
EXTT0=
EXTT1=
EXTT2=
EXTT3=
EXTT4=
EXTT5=
EXTT6=
EXTT7=
EXTT8=
EXTT9=
EXTT10=
EXTT11=
PLAYORDER=
